<?xml version="1.0" encoding="iso-8859-1"?>
<!-- Generator: Adobe Illustrator 19.0.0, SVG Export Plug-In . SVG Version: 6.00 Build 0)  -->
<svg xmlns="http://www.w3.org/2000/svg" xmlns:xlink="http://www.w3.org/1999/xlink" version="1.1" id="Capa_1" x="0px" y="0px" viewBox="0 0 512.008 512.008" style="enable-background:new 0 0 512.008 512.008;" xml:space="preserve" width="512px" height="512px">
<g>
	<g>
		<path d="M254.732,3.68c-2.376-3.712-7.328-4.8-11.056-2.4l-112,72c-3.712,2.384-4.792,7.336-2.4,11.056    c1.528,2.376,4.104,3.672,6.736,3.672c1.488,0,2.976-0.408,4.32-1.272l112-72C256.044,12.352,257.124,7.4,254.732,3.68z" fill="#3155aa"/>
	</g>
</g>
<g>
	<g>
		<path d="M364.332,73.28l-112-72c-3.728-2.408-8.672-1.312-11.056,2.4c-2.392,3.72-1.312,8.672,2.4,11.056l112,72    c1.344,0.864,2.832,1.272,4.32,1.272c2.632,0,5.208-1.296,6.736-3.672C369.124,80.616,368.044,75.664,364.332,73.28z" fill="#3155aa"/>
	</g>
</g>
<g>
	<g>
		<path d="M254.732,35.68c-2.376-3.712-7.328-4.8-11.056-2.4l-112,72c-3.712,2.384-4.792,7.336-2.4,11.056    c1.528,2.376,4.104,3.672,6.736,3.672c1.488,0,2.976-0.408,4.32-1.272l112-72C256.044,44.352,257.124,39.4,254.732,35.68z" fill="#3155aa"/>
	</g>
</g>
<g>
	<g>
		<path d="M364.332,105.28l-112-72c-3.728-2.408-8.672-1.32-11.056,2.4c-2.392,3.72-1.312,8.672,2.4,11.056l112,72    c1.344,0.864,2.832,1.272,4.32,1.272c2.632,0,5.208-1.296,6.736-3.672C369.124,112.616,368.044,107.664,364.332,105.28z" fill="#3155aa"/>
	</g>
</g>
<g>
	<g>
		<path d="M136.004,72.008c-4.424,0-8,3.576-8,8v32c0,4.424,3.576,8,8,8s8-3.576,8-8v-32    C144.004,75.584,140.428,72.008,136.004,72.008z" fill="#3155aa"/>
	</g>
</g>
<g>
	<g>
		<path d="M360.004,72.008c-4.424,0-8,3.576-8,8v32c0,4.424,3.576,8,8,8s8-3.576,8-8v-32    C368.004,75.584,364.428,72.008,360.004,72.008z" fill="#3155aa"/>
	</g>
</g>
<g>
	<g>
		<path d="M152.004,93.72c-4.424,0-8,3.576-8,8v122.288c0,4.424,3.576,8,8,8s8-3.576,8-8V101.72    C160.004,97.296,156.428,93.72,152.004,93.72z" fill="#3155aa"/>
	</g>
</g>
<g>
	<g>
		<path d="M360.004,216.008h-224c-4.424,0-8,3.576-8,8s3.576,8,8,8h224c4.424,0,8-3.576,8-8S364.428,216.008,360.004,216.008z" fill="#3155aa"/>
	</g>
</g>
<g>
	<g>
		<path d="M344.004,93.72c-4.424,0-8,3.576-8,8v122.288c0,4.424,3.576,8,8,8s8-3.576,8-8V101.72    C352.004,97.296,348.428,93.72,344.004,93.72z" fill="#3155aa"/>
	</g>
</g>
<g>
	<g>
		<path d="M272.004,144.008h-48c-4.424,0-8,3.576-8,8v72c0,4.424,3.576,8,8,8h48c4.424,0,8-3.576,8-8v-72    C280.004,147.584,276.428,144.008,272.004,144.008z M264.004,216.008h-32v-56h32V216.008z" fill="#3155aa"/>
	</g>
</g>
<g>
	<g>
		<path d="M360.004,312.008h-224c-4.424,0-8,3.576-8,8v112c0,4.424,3.576,8,8,8h224c4.424,0,8-3.576,8-8v-112    C368.004,315.584,364.428,312.008,360.004,312.008z M352.004,424.008h-208v-96h208V424.008z" fill="#3155aa"/>
	</g>
</g>
<g>
	<g>
		<path d="M168.004,312.008c-4.424,0-8,3.576-8,8c0,13.232-10.768,24-24,24c-4.424,0-8,3.576-8,8s3.576,8,8,8    c22.056,0,40-17.944,40-40C176.004,315.584,172.428,312.008,168.004,312.008z" fill="#3155aa"/>
	</g>
</g>
<g>
	<g>
		<path d="M360.004,344.008c-13.232,0-24-10.768-24-24c0-4.424-3.576-8-8-8s-8,3.576-8,8c0,22.056,17.944,40,40,40    c4.424,0,8-3.576,8-8S364.428,344.008,360.004,344.008z" fill="#3155aa"/>
	</g>
</g>
<g>
	<g>
		<path d="M360.004,392.008c-22.056,0-40,17.944-40,40c0,4.424,3.576,8,8,8s8-3.576,8-8c0-13.232,10.768-24,24-24    c4.424,0,8-3.576,8-8S364.428,392.008,360.004,392.008z" fill="#3155aa"/>
	</g>
</g>
<g>
	<g>
		<path d="M136.004,392.008c-4.424,0-8,3.576-8,8s3.576,8,8,8c13.232,0,24,10.768,24,24c0,4.424,3.576,8,8,8s8-3.576,8-8    C176.004,409.952,158.06,392.008,136.004,392.008z" fill="#3155aa"/>
	</g>
</g>
<g>
	<g>
		<path d="M248.004,336.008c-22.056,0-40,17.944-40,40c0,22.056,17.944,40,40,40c22.056,0,40-17.944,40-40    C288.004,353.952,270.06,336.008,248.004,336.008z M248.004,400.008c-13.232,0-24-10.768-24-24s10.768-24,24-24    c13.232,0,24,10.768,24,24S261.236,400.008,248.004,400.008z" fill="#3155aa"/>
	</g>
</g>
<g>
	<g>
		<path d="M136.004,424.008c-4.424,0-8,3.576-8,8v24c0,4.424,3.576,8,8,8s8-3.576,8-8v-24    C144.004,427.584,140.428,424.008,136.004,424.008z" fill="#3155aa"/>
	</g>
</g>
<g>
	<g>
		<path d="M360.004,448.008h-224c-4.424,0-8,3.576-8,8s3.576,8,8,8h224c4.424,0,8-3.576,8-8S364.428,448.008,360.004,448.008z" fill="#3155aa"/>
	</g>
</g>
<g>
	<g>
		<path d="M360.004,424.008c-4.424,0-8,3.576-8,8v24c0,4.424,3.576,8,8,8s8-3.576,8-8v-24    C368.004,427.584,364.428,424.008,360.004,424.008z" fill="#3155aa"/>
	</g>
</g>
<g>
	<g>
		<path d="M136.004,448.008c-4.424,0-8,3.576-8,8v24c0,4.424,3.576,8,8,8s8-3.576,8-8v-24    C144.004,451.584,140.428,448.008,136.004,448.008z" fill="#3155aa"/>
	</g>
</g>
<g>
	<g>
		<path d="M360.004,472.008h-224c-4.424,0-8,3.576-8,8s3.576,8,8,8h224c4.424,0,8-3.576,8-8S364.428,472.008,360.004,472.008z" fill="#3155aa"/>
	</g>
</g>
<g>
	<g>
		<path d="M360.004,448.008c-4.424,0-8,3.576-8,8v24c0,4.424,3.576,8,8,8s8-3.576,8-8v-24    C368.004,451.584,364.428,448.008,360.004,448.008z" fill="#3155aa"/>
	</g>
</g>
<g>
	<g>
		<path d="M136.004,472.008c-4.424,0-8,3.576-8,8v24c0,4.424,3.576,8,8,8s8-3.576,8-8v-24    C144.004,475.584,140.428,472.008,136.004,472.008z" fill="#3155aa"/>
	</g>
</g>
<g>
	<g>
		<path d="M360.004,496.008h-224c-4.424,0-8,3.576-8,8s3.576,8,8,8h224c4.424,0,8-3.576,8-8S364.428,496.008,360.004,496.008z" fill="#3155aa"/>
	</g>
</g>
<g>
	<g>
		<path d="M360.004,472.008c-4.424,0-8,3.576-8,8v24c0,4.424,3.576,8,8,8s8-3.576,8-8v-24    C368.004,475.584,364.428,472.008,360.004,472.008z" fill="#3155aa"/>
	</g>
</g>
<g>
	<g>
		<path d="M40.004,272.008c0-44.44,13.392-87.12,38.728-123.416c2.52-3.632,1.64-8.616-1.984-11.144    c-3.64-2.52-8.624-1.64-11.144,1.984c-27.216,39-41.6,84.848-41.6,132.576c0,47.696,14.368,93.52,41.56,132.528    c1.552,2.232,4.04,3.424,6.568,3.424c1.576,0,3.168-0.464,4.568-1.432c3.624-2.528,4.504-7.52,1.984-11.144    C53.38,359.088,40.004,316.424,40.004,272.008z" fill="#3155aa"/>
	</g>
</g>
<g>
	<g>
		<path d="M87.612,165.528l-7.832-24c-1.368-4.2-5.864-6.512-10.088-5.12c-4.2,1.368-6.496,5.888-5.12,10.088l7.832,24    c1.096,3.368,4.232,5.512,7.6,5.512c0.824,0,1.656-0.128,2.488-0.392C86.692,174.248,88.988,169.728,87.612,165.528z" fill="#3155aa"/>
	</g>
</g>
<g>
	<g>
		<path d="M79.772,141.488c-1.384-4.2-5.88-6.472-10.112-5.08L45.492,144.4c-4.192,1.384-6.472,5.92-5.08,10.112    c1.104,3.36,4.232,5.488,7.592,5.488c0.832,0,1.68-0.136,2.52-0.408l24.168-7.992C78.884,150.216,81.164,145.68,79.772,141.488z" fill="#3155aa"/>
	</g>
</g>
<g>
	<g>
		<path d="M446.452,139.424c-2.528-3.616-7.504-4.504-11.144-1.984c-3.624,2.528-4.504,7.52-1.984,11.144    c25.304,36.296,38.68,78.96,38.68,123.376c0,44.44-13.392,87.12-38.72,123.416c-2.52,3.632-1.64,8.616,1.984,11.144    c1.4,0.968,2.992,1.44,4.568,1.44c2.52,0,5.008-1.192,6.568-3.424c27.216-39,41.6-84.848,41.6-132.576    C488.004,224.264,473.636,178.44,446.452,139.424z" fill="#3155aa"/>
	</g>
</g>
<g>
	<g>
		<path d="M447.444,397.48l-7.832-24c-1.368-4.2-5.848-6.504-10.088-5.12c-4.2,1.368-6.496,5.888-5.12,10.088l7.832,24    c1.096,3.368,4.232,5.512,7.6,5.512c0.824,0,1.664-0.12,2.488-0.392C446.524,406.2,448.82,401.68,447.444,397.48z" fill="#3155aa"/>
	</g>
</g>
<g>
	<g>
		<path d="M471.604,389.448c-1.384-4.192-5.888-6.456-10.112-5.08l-24.168,7.992c-4.192,1.384-6.472,5.92-5.08,10.112    c1.104,3.36,4.232,5.488,7.592,5.488c0.832,0,1.68-0.128,2.52-0.408l24.168-7.992C470.716,398.176,472.996,393.64,471.604,389.448    z" fill="#3155aa"/>
	</g>
</g>
<g>
</g>
<g>
</g>
<g>
</g>
<g>
</g>
<g>
</g>
<g>
</g>
<g>
</g>
<g>
</g>
<g>
</g>
<g>
</g>
<g>
</g>
<g>
</g>
<g>
</g>
<g>
</g>
<g>
</g>
</svg>
