<?xml version="1.0" encoding="utf-8"?>
<!-- Generator: Adobe Illustrator 17.1.0, SVG Export Plug-In . SVG Version: 6.00 Build 0)  -->
<!DOCTYPE svg PUBLIC "-//W3C//DTD SVG 1.1//EN" "http://www.w3.org/Graphics/SVG/1.1/DTD/svg11.dtd">
<svg version="1.1" id="Layer_1" xmlns="http://www.w3.org/2000/svg" xmlns:xlink="http://www.w3.org/1999/xlink" x="0px" y="0px"
	 viewBox="0 0 128 88" enable-background="new 0 0 128 88" xml:space="preserve">
<g>
	<rect x="108.9" fill-rule="evenodd" clip-rule="evenodd" fill="#FFFFFF" width="19.1" height="52.7"/>
	<rect x="82.6" y="13.7" fill-rule="evenodd" clip-rule="evenodd" fill="#FFFFFF" width="17.1" height="39"/>
	<polygon fill-rule="evenodd" clip-rule="evenodd" fill="#FFFFFF" points="63.3,52.7 67.3,52.7 67.3,58.3 70,58.3 70,52.7 
		74.1,52.7 74.1,28.7 63.3,28.7 	"/>
</g>
<path fill-rule="evenodd" clip-rule="evenodd" fill="#FFFFFF" d="M63.2,70H128v2H63.2V70z"/>
<g>
	<path fill="#FFFFFF" d="M7.9,68.3c-1.1,0-2.2-0.2-3.1-0.6c-0.9-0.4-1.8-1-2.5-1.8C1.6,65,1,64,0.6,62.9S0,60.4,0,58.9
		c0-1.4,0.2-2.7,0.6-3.9c0.4-1.2,1-2.1,1.7-2.9c0.7-0.8,1.6-1.4,2.5-1.8c1-0.4,2-0.6,3.2-0.6c1.1,0,2.1,0.2,2.9,0.7
		c0.8,0.4,1.5,1,2,1.5l-1.2,1.5c-0.5-0.5-1-0.9-1.6-1.2c-0.6-0.3-1.3-0.5-2.1-0.5c-0.9,0-1.6,0.2-2.3,0.5C5,52.5,4.4,53,3.9,53.6
		C3.4,54.2,3,55,2.8,55.9c-0.3,0.9-0.4,1.9-0.4,3c0,1.1,0.1,2.2,0.4,3.1c0.3,0.9,0.6,1.7,1.1,2.3c0.5,0.6,1.1,1.1,1.7,1.5
		c0.7,0.3,1.5,0.5,2.3,0.5c0.9,0,1.6-0.2,2.3-0.5c0.7-0.4,1.3-0.9,1.9-1.5l1.3,1.4c-0.7,0.8-1.5,1.5-2.4,1.9
		C10.1,68,9,68.3,7.9,68.3z"/>
	<path fill="#FFFFFF" d="M21.7,68.3c-0.8,0-1.6-0.2-2.3-0.5c-0.7-0.3-1.4-0.8-2-1.4c-0.6-0.6-1-1.3-1.4-2.2
		c-0.3-0.9-0.5-1.8-0.5-2.9c0-1.1,0.2-2.1,0.5-3c0.3-0.9,0.8-1.6,1.4-2.2c0.6-0.6,1.2-1.1,2-1.4c0.7-0.3,1.5-0.5,2.3-0.5
		c0.8,0,1.6,0.2,2.3,0.5c0.7,0.3,1.4,0.8,2,1.4c0.6,0.6,1,1.3,1.4,2.2c0.3,0.9,0.5,1.9,0.5,3c0,1.1-0.2,2.1-0.5,2.9
		c-0.3,0.9-0.8,1.6-1.4,2.2c-0.6,0.6-1.2,1-2,1.4C23.3,68.1,22.5,68.3,21.7,68.3z M21.7,66.4c0.6,0,1.1-0.1,1.6-0.4
		c0.5-0.2,0.9-0.6,1.2-1c0.3-0.4,0.6-1,0.8-1.6c0.2-0.6,0.3-1.3,0.3-2.1c0-0.8-0.1-1.5-0.3-2.1c-0.2-0.6-0.4-1.2-0.8-1.6
		c-0.3-0.5-0.7-0.8-1.2-1.1c-0.5-0.2-1-0.4-1.6-0.4c-0.6,0-1.1,0.1-1.6,0.4c-0.5,0.2-0.9,0.6-1.2,1.1c-0.3,0.5-0.6,1-0.8,1.6
		c-0.2,0.6-0.3,1.3-0.3,2.1c0,0.8,0.1,1.5,0.3,2.1c0.2,0.6,0.4,1.2,0.8,1.6c0.3,0.4,0.7,0.8,1.2,1C20.6,66.3,21.1,66.4,21.7,66.4z"
		/>
	<path fill="#FFFFFF" d="M31.3,67.9V54.6h5.1c0.7,0,1.4,0.1,2,0.2c0.6,0.1,1.1,0.3,1.5,0.6c0.4,0.3,0.8,0.6,1,1
		c0.2,0.4,0.4,0.9,0.4,1.5c0,0.7-0.2,1.4-0.6,1.8c-0.4,0.5-0.9,0.8-1.6,1v0.1c0.4,0.1,0.7,0.2,1.1,0.4c0.3,0.2,0.6,0.4,0.9,0.6
		c0.3,0.3,0.5,0.6,0.6,0.9c0.1,0.4,0.2,0.8,0.2,1.3c0,0.7-0.1,1.2-0.4,1.7c-0.3,0.5-0.6,0.9-1.1,1.2c-0.5,0.3-1,0.6-1.7,0.7
		c-0.6,0.1-1.3,0.2-2.1,0.2H31.3z M33.6,60.2h2.5c1.1,0,1.9-0.2,2.4-0.5c0.5-0.4,0.7-0.8,0.7-1.5c0-0.6-0.2-1.1-0.7-1.5
		c-0.5-0.3-1.2-0.5-2.2-0.5h-2.7V60.2z M33.6,66.3h2.9c1.1,0,1.9-0.2,2.5-0.6c0.5-0.4,0.8-1,0.8-1.7c0-0.7-0.3-1.2-0.8-1.6
		c-0.6-0.4-1.4-0.6-2.5-0.6h-2.7V66.3z"/>
	<path fill="#FFFFFF" d="M45.5,67.9V50h2.2v9.3c0,0.9,0,1.9-0.1,2.9c-0.1,1-0.1,1.9-0.2,2.8h0.1l1.9-3.7L56.1,50h2.4v18h-2.2v-9.4
		c0-0.9,0-1.9,0.1-2.8c0.1-0.9,0.1-1.9,0.2-2.8h-0.1l-1.9,3.7l-6.6,11.3H45.5z"/>
	<path fill="#FFFFFF" d="M63.2,67.9V54.6h2.2V60h6.4v-5.4h2.2v13.3h-2.2V62h-6.4v5.9H63.2z"/>
	<path fill="#FFFFFF" d="M78.6,67.9V54.6h5.1c0.7,0,1.4,0.1,2,0.2c0.6,0.1,1.1,0.3,1.5,0.6c0.4,0.3,0.8,0.6,1,1
		c0.2,0.4,0.4,0.9,0.4,1.5c0,0.7-0.2,1.4-0.6,1.8c-0.4,0.5-0.9,0.8-1.6,1v0.1c0.4,0.1,0.7,0.2,1.1,0.4c0.3,0.2,0.6,0.4,0.9,0.6
		c0.3,0.3,0.5,0.6,0.6,0.9c0.1,0.4,0.2,0.8,0.2,1.3c0,0.7-0.1,1.2-0.4,1.7c-0.3,0.5-0.6,0.9-1.1,1.2s-1,0.6-1.7,0.7
		c-0.6,0.1-1.3,0.2-2.1,0.2H78.6z M80.9,60.2h2.5c1.1,0,1.9-0.2,2.4-0.5c0.5-0.4,0.7-0.8,0.7-1.5c0-0.6-0.2-1.1-0.7-1.5
		c-0.5-0.3-1.2-0.5-2.2-0.5h-2.7V60.2z M80.9,66.3h2.9c1.1,0,1.9-0.2,2.5-0.6c0.5-0.4,0.8-1,0.8-1.7c0-0.7-0.3-1.2-0.8-1.6
		c-0.6-0.4-1.4-0.6-2.5-0.6h-2.7V66.3z"/>
	<path fill="#FFFFFF" d="M98,68.3c-0.9,0-1.7-0.2-2.5-0.5c-0.8-0.3-1.5-0.8-2-1.4c-0.6-0.6-1-1.3-1.4-2.2c-0.3-0.9-0.5-1.8-0.5-2.9
		c0-1.1,0.2-2.1,0.5-2.9c0.3-0.9,0.8-1.6,1.3-2.2c0.6-0.6,1.2-1.1,1.9-1.4c0.7-0.3,1.5-0.5,2.2-0.5c0.8,0,1.6,0.1,2.3,0.4
		c0.7,0.3,1.2,0.7,1.7,1.3c0.4,0.5,0.8,1.2,1,2c0.2,0.8,0.4,1.6,0.4,2.6c0,0.2,0,0.5,0,0.7c0,0.2,0,0.4-0.1,0.6h-9
		c0.1,1.4,0.5,2.6,1.3,3.4c0.8,0.8,1.8,1.2,3.1,1.2c0.6,0,1.2-0.1,1.8-0.3c0.5-0.2,1.1-0.4,1.5-0.8l0.8,1.5c-0.6,0.4-1.2,0.7-1.9,1
		C99.7,68.1,98.9,68.3,98,68.3z M93.8,60.2h7.1c0-1.4-0.3-2.4-0.9-3.1c-0.6-0.7-1.4-1.1-2.4-1.1c-0.5,0-0.9,0.1-1.4,0.3
		c-0.4,0.2-0.8,0.5-1.2,0.8c-0.3,0.4-0.6,0.8-0.9,1.3C94,59,93.8,59.5,93.8,60.2z"/>
	<path fill="#FFFFFF" d="M111.4,68.3c-0.9,0-1.7-0.2-2.5-0.5c-0.8-0.3-1.4-0.8-2-1.4c-0.6-0.6-1-1.3-1.3-2.2
		c-0.3-0.9-0.5-1.8-0.5-2.9c0-1.1,0.2-2.1,0.5-3c0.3-0.9,0.8-1.6,1.4-2.2c0.6-0.6,1.3-1.1,2-1.4c0.8-0.3,1.6-0.5,2.5-0.5
		c0.9,0,1.6,0.2,2.2,0.5c0.6,0.3,1.2,0.7,1.6,1.1l-1.2,1.5c-0.4-0.3-0.8-0.6-1.2-0.8c-0.4-0.2-0.9-0.3-1.4-0.3
		c-0.6,0-1.2,0.1-1.7,0.4c-0.5,0.2-1,0.6-1.3,1.1c-0.4,0.5-0.7,1-0.9,1.6c-0.2,0.6-0.3,1.3-0.3,2.1c0,0.8,0.1,1.5,0.3,2.1
		c0.2,0.6,0.5,1.2,0.8,1.6c0.4,0.4,0.8,0.8,1.3,1c0.5,0.2,1.1,0.4,1.7,0.4c0.6,0,1.2-0.1,1.7-0.4c0.5-0.3,1-0.6,1.4-0.9l1,1.5
		c-0.6,0.5-1.3,0.9-2,1.2C113,68.1,112.2,68.3,111.4,68.3z"/>
	<path fill="#FFFFFF" d="M121.3,67.9V56.5h-4.5v-1.8H128v1.8h-4.5v11.5H121.3z"/>
</g>
<g>
	<path fill="#FFFFFF" d="M0.1,85.9v-7.4H1v3.1h3.4v-3.1h0.9v7.4H4.5v-3.5H1v3.5H0.1z"/>
	<path fill="#FFFFFF" d="M11.5,85.9v-7.4h4.2v0.8h-3.3v2.3h2.8v0.8h-2.8v2.7h3.4v0.8H11.5z"/>
	<path fill="#FFFFFF" d="M21.6,85.9V88h-0.8l-0.1-2.3v-0.6H21c0.1,0,0.2-0.1,0.2-0.2c0.1-0.1,0.2-0.2,0.3-0.4
		c0.1-0.2,0.2-0.5,0.3-0.8c0.1-0.3,0.2-0.7,0.3-1.2c0.1-0.4,0.1-0.7,0.2-1c0.1-0.3,0.1-0.6,0.2-0.9c0-0.3,0.1-0.6,0.2-0.9
		c0.1-0.3,0.1-0.7,0.2-1.1h3.7v6.6h0.8v0.6L27.2,88h-0.8v-2.1H21.6z M22.9,82.6c-0.1,0.6-0.2,1.1-0.4,1.5c-0.1,0.4-0.3,0.7-0.4,0.9
		h3.4v-5.8h-2.1c-0.1,0.3-0.1,0.6-0.2,0.9c0,0.3-0.1,0.5-0.1,0.8c0,0.3-0.1,0.5-0.1,0.8C23,82,22.9,82.3,22.9,82.6z"/>
	<path fill="#FFFFFF" d="M32.5,85.9v-7.4h2.2c0.4,0,0.7,0,1,0.1c0.3,0.1,0.6,0.2,0.8,0.3c0.2,0.1,0.4,0.3,0.5,0.6
		c0.1,0.2,0.2,0.5,0.2,0.8c0,0.4-0.1,0.7-0.3,1s-0.5,0.5-0.8,0.6v0c0.4,0.1,0.8,0.3,1.1,0.6c0.3,0.3,0.4,0.7,0.4,1.2
		c0,0.4-0.1,0.7-0.2,0.9c-0.1,0.3-0.3,0.5-0.6,0.7c-0.2,0.2-0.5,0.3-0.9,0.4c-0.3,0.1-0.7,0.1-1.1,0.1H32.5z M33.4,81.7h1.1
		c0.6,0,1.1-0.1,1.4-0.3c0.3-0.2,0.4-0.5,0.4-0.9c0-0.4-0.1-0.7-0.4-0.9c-0.3-0.2-0.7-0.3-1.3-0.3h-1.1V81.7z M33.4,85.1h1.3
		c0.6,0,1.1-0.1,1.5-0.4c0.4-0.2,0.5-0.6,0.5-1.1c0-0.5-0.2-0.8-0.5-1c-0.3-0.2-0.8-0.3-1.5-0.3h-1.3V85.1z"/>
	<path fill="#FFFFFF" d="M43.1,85.9v-7.4h0.9v3.8c0,0.4,0,0.8,0,1.2c0,0.4-0.1,0.8-0.1,1.2h0l0.8-1.5l2.7-4.6h1v7.4h-0.9V82
		c0-0.4,0-0.8,0-1.2c0-0.4,0.1-0.8,0.1-1.1h0l-0.8,1.5l-2.7,4.6H43.1z"/>
	<path fill="#FFFFFF" d="M53.6,85.9l2.2-3.9l-0.8-1.7c-0.1-0.2-0.2-0.4-0.3-0.5c-0.1-0.1-0.2-0.2-0.2-0.3c-0.1-0.1-0.1-0.1-0.2-0.1
		c-0.1,0-0.2,0-0.2,0c0,0-0.1,0-0.1,0s-0.1,0-0.1,0l-0.2-0.9c0.1,0,0.1,0,0.2-0.1c0.1,0,0.1,0,0.2,0c0.2,0,0.3,0,0.5,0.1
		c0.1,0,0.3,0.1,0.4,0.2c0.1,0.1,0.3,0.2,0.4,0.4c0.1,0.2,0.3,0.4,0.4,0.7l0.9,1.9h1v-3.1h0.9v3.1h1l0.9-1.9
		c0.1-0.3,0.3-0.5,0.4-0.7c0.1-0.2,0.3-0.3,0.4-0.4c0.1-0.1,0.3-0.2,0.4-0.2c0.1,0,0.3-0.1,0.5-0.1c0.1,0,0.1,0,0.2,0
		c0.1,0,0.1,0,0.2,0.1l-0.2,0.9c-0.1,0-0.1,0-0.1,0s-0.1,0-0.1,0c-0.1,0-0.2,0-0.2,0c-0.1,0-0.2,0.1-0.2,0.1
		c-0.1,0.1-0.2,0.2-0.2,0.3c-0.1,0.1-0.2,0.3-0.3,0.5L60.3,82l2.2,3.9h-1l-1.9-3.5h-1.1v3.5h-0.9v-3.5h-1.1l-1.9,3.5H53.6z"/>
	<path fill="#FFFFFF" d="M67.6,85.9v-7.4h0.9v3.8c0,0.4,0,0.8,0,1.2c0,0.4-0.1,0.8-0.1,1.2h0l0.8-1.5l2.7-4.6h1v7.4H72V82
		c0-0.4,0-0.8,0-1.2c0-0.4,0.1-0.8,0.1-1.1h0l-0.8,1.5l-2.7,4.6H67.6z"/>
	<path fill="#FFFFFF" d="M79,85.9v-7.4h1.1l1.4,3.9c0.1,0.3,0.2,0.5,0.3,0.8c0.1,0.3,0.2,0.5,0.3,0.8h0c0.1-0.3,0.2-0.5,0.3-0.8
		c0.1-0.3,0.2-0.5,0.3-0.8l1.4-3.9h1.1v7.4h-0.9v-4.1c0-0.3,0-0.7,0-1.1c0-0.4,0.1-0.8,0.1-1.1h0l-0.6,1.7l-1.4,3.8h-0.6l-1.4-3.8
		l-0.6-1.7h0c0,0.3,0,0.7,0.1,1.1s0,0.8,0,1.1v4.1H79z"/>
	<path fill="#FFFFFF" d="M93.9,86c-0.5,0-0.9-0.1-1.3-0.3c-0.4-0.2-0.7-0.4-1-0.8c-0.3-0.3-0.5-0.7-0.6-1.2c-0.2-0.5-0.2-1-0.2-1.6
		c0-0.6,0.1-1.1,0.2-1.6c0.2-0.5,0.4-0.9,0.6-1.2c0.3-0.3,0.6-0.6,1-0.7c0.4-0.2,0.8-0.3,1.3-0.3c0.5,0,0.9,0.1,1.3,0.3
		c0.4,0.2,0.7,0.4,1,0.8c0.3,0.3,0.5,0.7,0.7,1.2c0.2,0.5,0.2,1,0.2,1.6c0,0.6-0.1,1.1-0.2,1.6c-0.2,0.5-0.4,0.9-0.7,1.2
		c-0.3,0.3-0.6,0.6-1,0.8C94.8,85.9,94.4,86,93.9,86z M93.9,85.2c0.3,0,0.6-0.1,0.9-0.2c0.3-0.1,0.5-0.3,0.7-0.6
		c0.2-0.3,0.3-0.6,0.4-1c0.1-0.4,0.2-0.8,0.2-1.3c0-0.5-0.1-0.9-0.2-1.2s-0.3-0.7-0.4-0.9c-0.2-0.3-0.4-0.5-0.7-0.6
		c-0.3-0.1-0.6-0.2-0.9-0.2c-0.3,0-0.6,0.1-0.9,0.2c-0.3,0.1-0.5,0.3-0.7,0.6c-0.2,0.3-0.3,0.6-0.4,0.9c-0.1,0.4-0.2,0.8-0.2,1.2
		c0,0.5,0.1,0.9,0.2,1.3c0.1,0.4,0.3,0.7,0.4,1c0.2,0.3,0.4,0.5,0.7,0.6C93.3,85.1,93.6,85.2,93.9,85.2z"/>
	<path fill="#FFFFFF" d="M105.5,86c-0.5,0-0.9-0.1-1.3-0.3c-0.4-0.2-0.7-0.4-1-0.7c-0.3-0.3-0.5-0.7-0.7-1.2c-0.2-0.5-0.2-1-0.2-1.6
		c0-0.6,0.1-1.1,0.2-1.6c0.2-0.5,0.4-0.9,0.7-1.2c0.3-0.3,0.6-0.6,1-0.8c0.4-0.2,0.8-0.3,1.3-0.3c0.4,0,0.8,0.1,1.2,0.3
		c0.3,0.2,0.6,0.4,0.8,0.6l-0.5,0.6c-0.2-0.2-0.4-0.4-0.7-0.5c-0.2-0.1-0.5-0.2-0.8-0.2c-0.4,0-0.7,0.1-1,0.2
		c-0.3,0.1-0.5,0.3-0.7,0.6c-0.2,0.3-0.4,0.6-0.5,0.9c-0.1,0.4-0.2,0.8-0.2,1.2c0,0.5,0.1,0.9,0.2,1.3c0.1,0.4,0.3,0.7,0.5,0.9
		c0.2,0.3,0.4,0.5,0.7,0.6c0.3,0.1,0.6,0.2,0.9,0.2c0.4,0,0.7-0.1,0.9-0.2c0.3-0.1,0.5-0.3,0.8-0.6l0.5,0.6c-0.3,0.3-0.6,0.6-1,0.8
		C106.4,85.9,106,86,105.5,86z"/>
	<path fill="#FFFFFF" d="M114.5,85.9v-6.6h-2.2v-0.8h5.4v0.8h-2.2v6.6H114.5z"/>
	<path fill="#FFFFFF" d="M123,85.9v-7.4h0.9v3h1.4c0.4,0,0.8,0,1.1,0.1c0.3,0.1,0.6,0.2,0.9,0.4c0.2,0.2,0.4,0.4,0.6,0.6
		c0.1,0.3,0.2,0.6,0.2,0.9c0,0.4-0.1,0.7-0.2,1c-0.1,0.3-0.3,0.5-0.5,0.7c-0.2,0.2-0.5,0.3-0.9,0.4c-0.3,0.1-0.7,0.1-1.1,0.1H123z
		 M123.9,85.1h1.2c0.6,0,1.1-0.1,1.4-0.3c0.3-0.2,0.5-0.6,0.5-1.1c0-0.5-0.2-0.8-0.5-1c-0.3-0.2-0.8-0.3-1.4-0.3h-1.2V85.1z"/>
</g>
</svg>
