<?xml version="1.0" encoding="iso-8859-1"?>
<!-- Generator: Adobe Illustrator 19.0.0, SVG Export Plug-In . SVG Version: 6.00 Build 0)  -->
<svg xmlns="http://www.w3.org/2000/svg" xmlns:xlink="http://www.w3.org/1999/xlink" version="1.1" id="Capa_1" x="0px" y="0px" viewBox="0 0 512 512" style="enable-background:new 0 0 512 512;" xml:space="preserve" width="512px" height="512px">
<g>
	<g>
		<circle cx="241.651" cy="167.828" r="7.515" fill="#3155aa"/>
	</g>
</g>
<g>
	<g>
		<circle cx="322.81" cy="167.828" r="7.515" fill="#3155aa"/>
	</g>
</g>
<g>
	<g>
		<path d="M298.258,208.407h-32.063c-4.151,0-7.515,3.365-7.515,7.515c0,4.15,3.364,7.515,7.515,7.515h32.063    c4.151,0,7.515-3.365,7.515-7.515C305.773,211.772,302.409,208.407,298.258,208.407z" fill="#3155aa"/>
	</g>
</g>
<g>
	<g>
		<path d="M475.679,459.907l-58.781-176.344c-1.559-4.677-3.932-8.906-6.923-12.561v-65.544c4.774-2.652,8.016-7.743,8.016-13.581    v-32.063c0-5.838-3.241-10.929-8.016-13.582V127.75C409.976,57.308,352.668,0,282.227,0s-127.75,57.308-127.75,127.75v18.481    c-4.774,2.652-8.016,7.743-8.016,13.582v32.063c0,5.838,3.241,10.929,8.016,13.582v115.003c0,4.15,3.364,7.515,7.515,7.515    s7.515-3.365,7.515-7.515v-24.381c0-13.535,11.012-24.548,24.548-24.548h51.748l29.899,52.323c2.831,4.956,10.218,4.956,13.048,0    l29.9-52.323h60.702c10.583,0,19.941,6.745,23.289,16.785l58.781,176.344c2.526,7.577,1.297,15.638-3.374,22.116    c-4.669,6.479-11.927,10.195-19.914,10.195h-28.183c0.005-0.167,0.025-0.332,0.025-0.501v-32.063    c0-11.089-7.707-20.405-18.044-22.891l-30.503-83.881c-1.42-3.901-5.727-5.914-9.631-4.494c-3.901,1.419-5.912,5.73-4.494,9.63    l28.396,78.089h-29.349c-12.983,0-23.546,10.563-23.546,23.546v8.517h-87.322l-18.029-90.147    c-0.702-3.513-3.786-6.041-7.368-6.041h-40.579v-19.538c0-4.15-3.364-7.515-7.515-7.515c-4.151,0-7.515,3.365-7.515,7.515v19.538    H41.758c-4.667,0-8.284,4.408-7.368,8.989l24.047,120.235c0.702,3.513,3.786,6.041,7.368,6.041h372.33    c12.876,0,24.578-5.991,32.107-16.436C477.768,485.118,479.751,472.122,475.679,459.907z M169.506,127.75    c0-62.154,50.567-112.72,112.72-112.72s112.72,50.566,112.72,112.72v16.532h-9.343c-3.824-44.837-41.535-80.157-87.346-80.157    h-32.063c-45.81,0-83.521,35.32-87.346,80.157h-9.343V127.75z M370.9,151.796v10.855l-76.594-49.239    c-4.916-3.158-11.579,0.497-11.579,6.321v18.504L230.1,105.346c-3.232-2.022-7.469-1.3-9.85,1.678l-25.533,31.916    c6.089-33.94,35.812-59.786,71.479-59.786h32.063C338.313,79.155,370.9,111.741,370.9,151.796z M193.553,213.561    c2.309,3.793,4.852,7.427,7.611,10.877h-7.611V213.561z M161.992,192.376c-0.276,0-0.501-0.224-0.501-0.501v-32.063    c0-0.277,0.225-0.501,0.501-0.501h16.532v33.065H161.992z M194.055,256.501c-9.269,0-17.797,3.211-24.549,8.568v-57.664h9.018    v24.548c0,4.15,3.364,7.515,7.515,7.515h29.86c8.577,7.146,18.313,12.93,28.868,17.033H194.055z M282.227,304.979L263.4,272.031    h37.655L282.227,304.979z M282.227,248.485c-13.907,0-27.106-3.251-38.879-9.018h6.816c4.151,0,7.515-3.365,7.515-7.515    c0-4.15-3.364-7.515-7.515-7.515H221.56c-15.946-14.959-26.401-35.759-27.836-59.088c-0.024-0.396-0.088-0.78-0.17-1.156v-0.17    c0.522-0.383,34.254-42.389,34.254-42.389l58.453,36.533c4.92,3.075,11.497-0.589,11.497-6.372v-18.299l71.025,45.659    C359.828,219.551,324.019,248.485,282.227,248.485z M394.947,259.698c-4.823-2.066-10.106-3.197-15.594-3.197h-59.573    c23.829-9.229,43.537-27.02,55.085-49.988c1.058,0.568,2.266,0.892,3.551,0.892h16.532V259.698z M402.962,191.875    c0,0.277-0.225,0.501-0.501,0.501h-16.532v-33.065h16.532c0.276,0,0.501,0.224,0.501,0.501V191.875z M71.965,496.971    L50.924,391.765h153.002l21.041,105.206H71.965z M240.227,496.637l-1.736-8.684h84.316v8.517c0,0.056,0.008,0.11,0.008,0.167    H240.227z M394.947,496.47c0,0.277-0.225,0.501-0.501,0.501h-8.517v-8.517c0-4.15-3.364-7.515-7.515-7.515    s-7.515,3.365-7.515,7.515v8.517h-9.018v-8.517c0-4.15-3.364-7.515-7.515-7.515s-7.515,3.365-7.515,7.515v8.517h-5.294    c-0.701-0.216-1.447-0.334-2.22-0.334h-1.469c-0.019-0.053-0.034-0.107-0.034-0.167v-32.063c0-4.696,3.82-8.517,8.517-8.517    h40.054c0.009,0,0.017,0.002,0.025,0.002c0.007,0,0.014-0.001,0.02-0.001c4.686,0.012,8.496,3.826,8.496,8.516V496.47z" fill="#3155aa"/>
	</g>
</g>
<g>
	<g>
		<circle cx="282.231" cy="360.204" r="7.515" fill="#3155aa"/>
	</g>
</g>
<g>
	<g>
		<circle cx="282.231" cy="392.767" r="7.515" fill="#3155aa"/>
	</g>
</g>
<g>
	<g>
		<circle cx="282.231" cy="425.331" r="7.515" fill="#3155aa"/>
	</g>
</g>
<g>
	<g>
		<circle cx="129.933" cy="464.908" r="7.515" fill="#3155aa"/>
	</g>
</g>
<g>
	<g>
		<path d="M146.58,440.243c-4.449-4.448-10.362-6.896-16.651-6.896s-12.202,2.449-16.65,6.896c-2.935,2.935-2.935,7.693,0,10.627    c2.936,2.935,7.693,2.935,10.628,0c1.608-1.608,3.746-2.495,6.022-2.495s4.413,0.886,6.022,2.495    c1.468,1.467,3.392,2.201,5.314,2.201C147.836,453.071,151.209,444.872,146.58,440.243z" fill="#3155aa"/>
	</g>
</g>
<g>
	<g>
		<path d="M163.581,423.241c-8.988-8.991-20.938-13.941-33.652-13.941c-12.713,0-24.664,4.951-33.654,13.94    c-2.935,2.935-2.935,7.693,0.001,10.628c2.934,2.935,7.692,2.934,10.627,0c6.15-6.151,14.327-9.538,23.025-9.538    s16.876,3.387,23.025,9.538c3.057,3.056,8.216,2.851,11.027-0.431C166.499,430.496,166.317,425.976,163.581,423.241z" fill="#3155aa"/>
	</g>
</g>
<g>
</g>
<g>
</g>
<g>
</g>
<g>
</g>
<g>
</g>
<g>
</g>
<g>
</g>
<g>
</g>
<g>
</g>
<g>
</g>
<g>
</g>
<g>
</g>
<g>
</g>
<g>
</g>
<g>
</g>
</svg>
