<?xml version="1.0"?>
<svg xmlns="http://www.w3.org/2000/svg" height="512px" viewBox="-17 0 511 512" width="512px"><path d="m46.167969 497h85.238281v15h-85.238281zm0 0" fill="#3155aa"/><path d="m346.40625 497h85.242188v15h-85.242188zm0 0" fill="#3155aa"/><path d="m93.90625 404.316406h15v15h-15zm0 0" fill="#3155aa"/><path d="m120.40625 404.316406h15v15h-15zm0 0" fill="#3155aa"/><path d="m146.90625 404.316406h15v15h-15zm0 0" fill="#3155aa"/><path d="m176.695312 321.695312c43.996094 0 79.789063-35.792968 79.789063-79.789062s-35.792969-79.789062-79.789063-79.789062c-43.996093 0-79.789062 35.792968-79.789062 79.789062s35.792969 79.789062 79.789062 79.789062zm-64.355468-87.289062c1.417968-12.253906 6.269531-23.476562 13.566406-32.683594l7.269531 7.265625 10.601563-10.609375-7.261719-7.261718c9.203125-7.296876 20.425781-12.148438 32.683594-13.566407v10.300781l15-.003906v-10.296875c12.253906 1.417969 23.476562 6.273438 32.679687 13.566407l-7.261718 7.261718 10.605468 10.605469 7.261719-7.257813c7.296875 9.203126 12.148437 20.425782 13.566406 32.679688h-10.367187v15h10.367187c-1.417969 12.257812-6.269531 23.480469-13.566406 32.683594l-7.253906-7.257813-10.609375 10.601563 7.257812 7.261718c-9.203125 7.296876-20.425781 12.152344-32.679687 13.570313v-10.296875l-15-.003906v10.300781c-12.257813-1.417969-23.480469-6.273437-32.683594-13.570313l7.261719-7.257812-10.601563-10.609375-7.269531 7.261719c-7.296875-9.203125-12.148438-20.425782-13.566406-32.683594h10.347656v-15zm0 0" fill="#3155aa"/><path d="m176.695312 283.496094c22.933594 0 41.589844-18.65625 41.589844-41.589844 0-22.929688-18.65625-41.585938-41.589844-41.585938-22.929687 0-41.585937 18.65625-41.585937 41.585938 0 22.933594 18.65625 41.589844 41.585937 41.589844zm0-68.175782c4.609376 0 8.949219 1.175782 12.734376 3.25l-13.921876 13.921876 10.605469 10.605468 13.921875-13.921875c2.070313 3.785157 3.25 8.125 3.25 12.730469 0 14.660156-11.925781 26.589844-26.585937 26.589844-14.664063 0-26.589844-11.929688-26.589844-26.589844s11.925781-26.585938 26.585937-26.585938zm0 0" fill="#3155aa"/><path d="m.5 0v482.949219h476.816406v-482.949219zm461.816406 467.949219h-446.816406v-452.949219h446.816406zm0 0" fill="#3155aa"/><path d="m44.496094 449.316406h394.238281l.175781-414.816406h-394.414062v30.257812h-16.082032v97.285157h16.082032v31.222656h-16.082032v97.285156h16.082032v31.222657h-16.082032v97.285156h16.082032zm16.078125-369.558594v11.410157h-17.160157v-11.410157zm-17.160157 67.285157v-40.875h17.160157v40.875zm17.160157 61.222656v10.570313h-17.160157v-10.570313zm-17.160157 67.285156v-41.714843h17.160157v41.714843zm16.082032 15h16.078125v-97.285156h-16.078125v-31.222656h16.078125v-97.285157h-16.078125v-15.257812h364.410156l-.164062 384.816406h-364.246094v-15.257812h16.078125v-97.285156h-16.078125zm1.078125 46.222657v8.734374h-17.160157v-8.734374zm-17.160157 67.285156v-43.550782h17.160157v43.550782zm0 0" fill="#3155aa"/><path d="m381.566406 217.699219c0-21.320313-17.34375-38.667969-38.667968-38.667969-21.320313 0-38.667969 17.347656-38.667969 38.667969 0 9.019531 3.105469 17.324219 8.300781 23.910156v120.757813l15.664062 15.664062h29.410157l15.664062-15.664062v-120.757813c5.195313-6.582031 8.296875-14.890625 8.296875-23.910156zm-38.667968-23.667969c13.050781 0 23.667968 10.617188 23.667968 23.667969s-10.617187 23.667969-23.667968 23.667969c-13.050782 0-23.667969-10.617188-23.667969-23.667969s10.617187-23.667969 23.667969-23.667969zm15.371093 162.121094-6.878906 6.878906h-16.984375l-6.875-6.878906v-99.785156h7.867188v49.214843h15v-49.214843h7.871093zm0 0" fill="#3155aa"/><path d="m305.753906 249.089844c-7.429687-8.769532-11.523437-19.917969-11.523437-31.390625 0-26.835938 21.832031-48.667969 48.667969-48.667969 26.835937 0 48.667968 21.832031 48.667968 48.667969 0 11.472656-4.089844 22.621093-11.519531 31.390625l11.441406 9.695312c9.726563-11.476562 15.078125-26.066406 15.078125-41.085937 0-35.105469-28.5625-63.667969-63.667968-63.667969-35.105469 0-63.667969 28.5625-63.667969 63.667969 0 15.019531 5.355469 29.613281 15.078125 41.085937zm0 0" fill="#3155aa"/><path d="m406.398438 74.5h-106.664063v-15h106.664063zm-116.664063 0h-15v-15h15zm-25 0h-15v-15h15zm0 0" fill="#3155aa"/></svg>
